<svg width="22" height="14" viewBox="0 0 22 14" fill="none" xmlns="http://www.w3.org/2000/svg">
<path d="M21.971 9.17657L21.4379 6.24248C21.406 6.06694 21.2376 5.95062 21.0623 5.9824C20.8868 6.01432 20.7704 6.18245 20.8023 6.35794L21.3356 9.29263C21.3874 9.57536 21.3261 9.86145 21.1627 10.0982C20.9994 10.3349 20.7537 10.4939 20.4698 10.546L18.3906 10.9353C18.2152 10.9682 18.0997 11.1369 18.1325 11.3122C18.1616 11.4675 18.2972 11.5758 18.4496 11.5758C18.4693 11.5758 20.5876 11.1811 20.5876 11.1811C21.04 11.098 21.4331 10.8437 21.6945 10.465C21.9558 10.0863 22.054 9.62846 21.971 9.17657Z" fill="#79B0B0"/>
<path d="M16.8675 11.2073L9.70951 12.5208C9.1254 12.6279 8.563 12.2401 8.45585 11.6562L7.37145 5.74623C7.26426 5.16213 7.65215 4.59973 8.23609 4.49258L18.9979 2.51757C19.2805 2.46572 19.5666 2.527 19.8035 2.69039C20.0402 2.85374 20.1992 3.09944 20.2511 3.38216L20.5258 4.88C20.558 5.0555 20.7262 5.17152 20.9018 5.13943C21.0773 5.10722 21.1934 4.93892 21.1612 4.76347L20.8864 3.26558C20.8034 2.81313 20.549 2.42003 20.1703 2.15866C19.7915 1.89733 19.3337 1.7991 18.8812 1.88217L18.8507 1.88777L18.8018 1.62158C18.7266 1.21159 18.4962 0.855521 18.1531 0.618916C17.8101 0.382354 17.3954 0.293509 16.9855 0.368702L5.90415 2.40202C5.05807 2.55723 4.49602 3.37204 4.65127 4.21834L5.79433 10.4481C5.93218 11.1995 6.5901 11.7268 7.32834 11.7268C7.42145 11.7268 7.51589 11.7184 7.61068 11.701L7.80082 11.6661L7.82041 11.7727C7.97265 12.6024 8.69909 13.1846 9.51429 13.1846C9.61709 13.1846 9.72139 13.1753 9.82604 13.1561L16.984 11.8426C17.1595 11.8104 17.2756 11.6421 17.2434 11.4667C17.2112 11.2912 17.0426 11.175 16.8675 11.2073ZM7.4941 11.0656C6.99815 11.1567 6.52068 10.8273 6.42977 10.3316L5.28671 4.1018C5.19575 3.60585 5.52504 3.12838 6.02077 3.03746L17.1021 1.00414C17.3423 0.959999 17.5855 1.01211 17.7864 1.15074C17.9874 1.28937 18.1224 1.49798 18.1664 1.73825L18.2153 2.00444L8.11946 3.85723C7.18519 4.02863 6.56461 4.92837 6.73601 5.86286L7.68424 11.0307L7.4941 11.0656Z" fill="#79B0B0"/>
<path d="M11.499 7.51924C11.499 9.09305 12.7794 10.3734 14.3532 10.3734C15.927 10.3734 17.2074 9.09305 17.2074 7.51924C17.2074 5.94544 15.927 4.66504 14.3532 4.66504C12.7794 4.66504 11.499 5.94544 11.499 7.51924ZM16.5614 7.51924C16.5614 8.73685 15.5708 9.72745 14.3532 9.72745C13.1356 9.72745 12.145 8.73685 12.145 7.51924C12.145 6.30164 13.1356 5.31103 14.3532 5.31103C15.5708 5.31103 16.5614 6.30164 16.5614 7.51924Z" fill="#79B0B0"/>
<path d="M0.399785 9.55723L2.34758 9.0811C2.52088 9.03872 2.62699 8.86392 2.58466 8.69066C2.54232 8.51737 2.36747 8.41142 2.19422 8.45359L0.246384 8.92972C0.0730859 8.9721 -0.0330289 9.1469 0.00930502 9.32015C0.0453513 9.4677 0.177435 9.56653 0.322826 9.56653C0.348192 9.56653 0.374032 9.56352 0.399785 9.55723Z" fill="#79B0B0"/>
<path d="M4.71908 11.9308L2.77129 12.4069C2.59799 12.4493 2.49187 12.6241 2.53421 12.7973C2.57025 12.9449 2.70234 13.0437 2.84773 13.0437C2.87309 13.0437 2.89893 13.0407 2.92469 13.0344L4.87248 12.5583C5.04577 12.5159 5.15189 12.3411 5.10956 12.1678C5.06722 11.9946 4.89237 11.8886 4.71908 11.9308Z" fill="#79B0B0"/>
<path d="M3.79205 9.96952L0.762177 10.7486C0.589396 10.7931 0.485349 10.9691 0.529793 11.1419C0.567303 11.2876 0.698483 11.3845 0.842366 11.3845C0.868981 11.3845 0.89607 11.3812 0.923029 11.3742L3.9529 10.5951C4.12568 10.5507 4.22973 10.3746 4.18528 10.2019C4.14084 10.0291 3.9647 9.92499 3.79205 9.96952Z" fill="#79B0B0"/>
<path d="M3.82868 8.7442C3.85331 8.7442 3.87829 8.7414 3.90327 8.73546L4.31261 8.63864C4.48621 8.59756 4.59366 8.42357 4.55262 8.24997C4.51153 8.07637 4.33746 7.96892 4.16395 8.00996L3.75461 8.10677C3.58101 8.14786 3.47356 8.32185 3.5146 8.49545C3.54978 8.64407 3.68234 8.7442 3.82868 8.7442Z" fill="#79B0B0"/>
<path d="M1.20856 12.8466L0.472733 13.0198C0.299091 13.0607 0.191425 13.2346 0.232295 13.4082C0.267308 13.557 0.399951 13.6573 0.546419 13.6573C0.570924 13.6573 0.595773 13.6545 0.620665 13.6486L1.35649 13.4755C1.53013 13.4346 1.6378 13.2607 1.59693 13.0871C1.55606 12.9134 1.3822 12.8059 1.20856 12.8466Z" fill="#79B0B0"/>
</svg>
